<?xml version="1.0" encoding="iso-8859-1"?>
<!-- Generator: Adobe Illustrator 19.0.0, SVG Export Plug-In . SVG Version: 6.00 Build 0)  -->
<svg version="1.1" id="Layer_1" xmlns="http://www.w3.org/2000/svg" xmlns:xlink="http://www.w3.org/1999/xlink" x="0px" y="0px"
	 viewBox="0 0 512 512" style="enable-background:new 0 0 512 512;" xml:space="preserve">
<circle style="fill:#37474F;" cx="256" cy="256" r="247.467"/>
<ellipse style="fill:#607D8B;" cx="238.933" cy="256" rx="230.4" ry="247.467"/>
<path style="fill:#0377BC;" d="M466.091,292.779c-15.505,88.508-84.804,157.807-173.312,173.312
	c-9.301,1.502-18.065-4.821-19.567-14.131c-0.06-0.376-0.111-0.76-0.145-1.143c-0.043-0.538-0.043-1.084,0-1.621v-69.888
	c0.043-7.68,5.214-14.387,12.629-16.384c37.35-10.419,66.603-39.509,77.227-76.8c1.835-7.586,8.576-12.962,16.384-13.056h69.888
	c9.429-0.017,17.084,7.603,17.101,17.033C466.296,290.995,466.227,291.891,466.091,292.779z"/>
<path style="fill:#02A9F4;" d="M440.491,278.784c-15.189,86.281-81.587,154.505-167.424,172.032c-0.043-0.538-0.043-1.084,0-1.621
	v-69.888c0.043-7.68,5.214-14.387,12.629-16.384c37.35-10.419,66.603-39.509,77.227-76.8c1.835-7.586,8.576-12.962,16.384-13.056
	h61.184C440.832,274.953,440.815,276.89,440.491,278.784z"/>
<path style="fill:#C52828;" d="M465.408,227.413c-2.381,6.921-8.9,11.554-16.213,11.52h-69.888
	c-7.219-0.077-13.611-4.693-15.957-11.52c-0.051-0.367-0.051-0.742,0-1.109c-10.624-37.291-39.876-66.381-77.227-76.8l-2.645-0.939
	c-6.366-2.697-10.47-8.96-10.411-15.872V62.805c-0.111-9.421,7.433-17.161,16.862-17.271c0.956-0.009,1.911,0.06,2.85,0.205
	c0.853,0,1.792,0,2.645,0.512c1.263,0.171,2.517,0.427,3.755,0.768c85.692,17.732,151.859,85.999,166.912,172.203
	C466.611,221.961,466.372,224.794,465.408,227.413z"/>
<path style="fill:#F44335;" d="M425.728,215.893c-2.364,6.886-8.841,11.511-16.128,11.52h-46.251c-0.051-0.367-0.051-0.742,0-1.109
	c-10.624-37.291-39.876-66.381-77.227-76.8l-2.645-0.939c-6.366-2.697-10.47-8.96-10.411-15.872V62.805
	c-0.111-9.421,7.433-17.161,16.862-17.271c0.956-0.009,1.911,0.06,2.85,0.205c0.853,0,1.792,0,2.645,0.512
	c68.804,27.392,118.485,88.499,131.243,161.451C427.102,210.466,426.778,213.299,425.728,215.893z"/>
<path d="M256,512C114.611,512,0,397.389,0,256S114.611,0,256,0s256,114.611,256,256S397.389,512,256,512z M256,17.067
	C124.041,17.067,17.067,124.041,17.067,256S124.041,494.933,256,494.933S494.933,387.96,494.933,256S387.96,17.067,256,17.067z"/>
<path style="fill:#FDD834;" d="M226.304,362.923c-7.45-2.082-14.66-4.941-21.504-8.533c-11.708-6.135-22.255-14.285-31.147-24.064
	c-11.546-12.766-19.959-28.049-24.576-44.629c-1.997-7.415-8.704-12.587-16.384-12.629H62.805
	c-9.421-0.111-17.161,7.433-17.271,16.862c-0.009,0.956,0.06,1.911,0.205,2.85c15.531,88.559,84.915,157.867,173.483,173.312
	c9.31,1.459,18.048-4.898,19.507-14.217c0.145-0.947,0.213-1.894,0.205-2.85v-69.717
	C238.891,371.627,233.719,364.919,226.304,362.923z"/>
<path style="fill:#FFEB3A;" d="M204.8,354.389v69.205c0.111,9.421-7.433,17.161-16.862,17.271c-0.956,0.009-1.911-0.06-2.85-0.205
	c-25.941-4.565-50.807-13.943-73.301-27.648C77.15,381.312,53.99,339.029,45.909,292.779c-1.459-9.31,4.898-18.048,14.217-19.507
	c0.939-0.145,1.894-0.213,2.85-0.205h69.888c7.68,0.043,14.387,5.214,16.384,12.629c4.617,16.58,13.03,31.863,24.576,44.629
	C182.665,340.096,193.152,348.237,204.8,354.389z"/>
<path d="M221.867,474.88c-1.417,0.119-2.85,0.119-4.267,0c-92.092-16.256-164.105-88.508-180.053-180.651
	c-1.203-7.347,0.853-14.857,5.632-20.565c4.873-5.794,12.058-9.139,19.627-9.131h69.888c11.529,0.017,21.623,7.74,24.661,18.859
	c9.762,34.517,36.736,61.491,71.253,71.253c11.119,3.038,18.842,13.133,18.859,24.661v69.888c0.009,7.612-3.362,14.839-9.216,19.712
	C233.66,472.755,227.857,474.871,221.867,474.88z M62.805,281.6c-2.569-0.026-5.009,1.101-6.656,3.072
	c-1.51,1.869-2.159,4.284-1.792,6.656c14.908,84.915,81.399,151.407,166.315,166.315c2.381,0.341,4.804-0.341,6.656-1.877
	c1.971-1.647,3.098-4.087,3.072-6.656v-69.803c0.128-3.994-2.534-7.535-6.4-8.533c-40.269-11.383-71.731-42.854-83.115-83.115
	c-0.998-3.866-4.54-6.528-8.533-6.4L62.805,281.6z"/>
<path d="M153.6,366.933c-2.27,0.017-4.446-0.879-6.059-2.475c-15.462-15.437-27.494-33.963-35.328-54.357
	c-0.998-4.608,1.929-9.148,6.537-10.146c3.669-0.794,7.424,0.896,9.25,4.173c6.946,18.159,17.647,34.645,31.403,48.384
	c3.26,3.405,3.132,8.806-0.273,12.066C157.636,366.003,155.665,366.848,153.6,366.933z"/>
<path d="M359.168,366.933c-4.71,0.026-8.559-3.772-8.585-8.482c-0.017-2.295,0.896-4.497,2.526-6.11
	c13.756-13.739,24.457-30.225,31.403-48.384c1.673-4.403,6.605-6.622,11.008-4.949c4.403,1.673,6.622,6.605,4.949,11.008
	c-7.834,20.395-19.866,38.921-35.328,54.357C363.563,365.978,361.421,366.899,359.168,366.933z"/>
<path style="fill:#2E7D32;" d="M238.933,62.805v69.888c-0.043,7.68-5.214,14.387-12.629,16.384
	c-37.35,10.419-66.603,39.509-77.227,76.8c-1.835,7.586-8.576,12.962-16.384,13.056H62.805c-7.313,0.034-13.833-4.599-16.213-11.52
	c-1.024-2.722-1.263-5.683-0.683-8.533C61.15,132.881,127.283,64.853,212.821,47.189c2.159-0.512,4.292-0.939,6.4-1.28
	c9.31-1.459,18.048,4.907,19.507,14.217C238.865,61.013,238.933,61.909,238.933,62.805z"/>
<path style="fill:#4CAF50;" d="M213.333,51.2v69.973c-0.043,7.68-5.214,14.387-12.629,16.384
	c-37.35,10.419-66.603,39.509-77.227,76.8c-1.963,7.45-8.678,12.663-16.384,12.715H46.592c-1.024-2.722-1.263-5.683-0.683-8.533
	c15.369-85.871,81.476-153.728,166.912-171.349C213.163,48.495,213.333,49.843,213.333,51.2z"/>
<path d="M132.693,247.467H62.805c-7.612,0.009-14.839-3.362-19.712-9.216c-4.779-5.709-6.835-13.218-5.632-20.565
	c16.162-91.998,88.218-164.019,180.224-180.139c7.356-1.271,14.891,0.794,20.565,5.632c5.828,4.855,9.199,12.041,9.216,19.627
	v69.888c-0.017,11.529-7.74,21.623-18.859,24.661c-34.517,9.762-61.491,36.736-71.253,71.253
	C154.317,239.727,144.222,247.45,132.693,247.467z M221.867,54.187h-1.365C135.595,69.18,69.171,135.74,54.357,220.672
	c-0.367,2.372,0.282,4.787,1.792,6.656c1.647,1.971,4.087,3.098,6.656,3.072h69.888c3.994,0.128,7.535-2.534,8.533-6.4
	c11.383-40.269,42.846-71.731,83.115-83.115c3.866-0.998,6.528-4.54,6.4-8.533V62.805c0.026-2.569-1.101-5.009-3.072-6.656
	C226.048,54.801,223.974,54.101,221.867,54.187z"/>
<path d="M136.533,131.499c-4.71-0.009-8.525-3.84-8.508-8.559c0.009-2.398,1.024-4.676,2.79-6.289
	c20.591-18.551,45.005-32.358,71.509-40.448c4.412-1.647,9.327,0.597,10.974,5.009c1.647,4.412-0.597,9.327-5.009,10.974
	c-0.333,0.128-0.674,0.23-1.015,0.307c-24.107,7.356-46.302,19.917-65.024,36.779C140.689,130.705,138.65,131.49,136.533,131.499z"
	/>
<path d="M375.467,131.499c-2.116-0.009-4.156-0.794-5.717-2.219c-18.722-16.862-40.917-29.423-65.024-36.779
	c-4.582-1.084-7.424-5.683-6.34-10.274c1.084-4.582,5.683-7.424,10.274-6.34c0.341,0.085,0.683,0.188,1.015,0.307
	c26.505,8.09,50.918,21.897,71.509,40.448c3.49,3.166,3.746,8.567,0.572,12.058C380.143,130.475,377.865,131.49,375.467,131.499z"/>
<path d="M449.195,247.467h-69.888c-11.529-0.017-21.623-7.74-24.661-18.859c-9.762-34.517-36.736-61.491-71.253-71.253
	c-11.119-3.038-18.842-13.133-18.859-24.661V62.805c-0.009-7.612,3.362-14.839,9.216-19.712c5.675-4.838,13.21-6.903,20.565-5.632
	c92.023,16.179,164.045,88.269,180.139,180.309c1.203,7.347-0.853,14.857-5.632,20.565
	C463.949,244.13,456.764,247.475,449.195,247.467z M290.133,54.187c-1.903,0.051-3.738,0.742-5.205,1.963
	c-1.971,1.647-3.098,4.087-3.072,6.656v69.888c-0.128,3.994,2.534,7.535,6.4,8.533c40.26,11.383,71.731,42.854,83.115,83.115
	c0.998,3.866,4.54,6.528,8.533,6.4h69.888c2.569,0.026,5.009-1.101,6.656-3.072c1.51-1.869,2.159-4.284,1.792-6.656
	c-14.848-85.231-81.655-151.936-166.912-166.656L290.133,54.187z"/>
<path d="M290.133,474.88c-5.965-0.034-11.725-2.142-16.299-5.973c-5.879-4.855-9.293-12.083-9.301-19.712v-69.888
	c0.017-11.529,7.74-21.623,18.859-24.661c34.517-9.762,61.491-36.736,71.253-71.253c3.038-11.119,13.133-18.842,24.661-18.859
	h69.888c7.612-0.009,14.839,3.362,19.712,9.216c4.779,5.709,6.835,13.218,5.632,20.565
	c-16.162,91.998-88.218,164.019-180.224,180.139C292.932,474.709,291.533,474.854,290.133,474.88z M379.307,281.6
	c-3.994-0.128-7.535,2.534-8.533,6.4c-11.383,40.26-42.854,71.731-83.115,83.115c-3.866,0.998-6.528,4.54-6.4,8.533v69.888
	c-0.026,2.569,1.101,5.009,3.072,6.656c1.818,1.596,4.267,2.287,6.656,1.877c85.18-14.831,151.868-81.553,166.656-166.741
	c0.367-2.372-0.282-4.787-1.792-6.656c-1.647-1.971-4.087-3.098-6.656-3.072L379.307,281.6L379.307,281.6z"/>
<path style="fill:#424242;" d="M328.107,229.632l-3.84,0.768H187.733l-3.84-0.768c14.601-39.825,58.718-60.271,98.543-45.67
	C303.633,191.735,320.333,208.435,328.107,229.632z"/>
<path d="M324.267,238.933H187.733h-1.707l-3.84-0.768c-4.617-0.947-7.595-5.453-6.647-10.069c0.085-0.41,0.196-0.802,0.333-1.195
	c16.205-44.254,65.22-66.987,109.474-50.782c23.569,8.636,42.146,27.204,50.782,50.782c1.604,4.429-0.691,9.327-5.12,10.931
	c-0.393,0.145-0.785,0.256-1.195,0.333l-3.84,0.768H324.267z M196.949,221.867h118.101c-18.876-32.64-60.638-43.793-93.278-24.909
	c-10.342,5.982-18.935,14.575-24.909,24.909H196.949z"/>
<path style="fill:#CFD8DC;" d="M332.8,256c0,42.419-34.381,76.8-76.8,76.8s-76.8-34.381-76.8-76.8
	c-0.026-9.003,1.562-17.929,4.693-26.368l3.84,0.768h136.533l3.84-0.768C331.238,238.071,332.826,246.997,332.8,256z"/>
<path d="M256,341.333c-47.13,0-85.333-38.204-85.333-85.333c-0.043-10.018,1.724-19.959,5.205-29.355
	c1.468-3.908,5.547-6.187,9.643-5.376l2.987,0.597h134.912l2.987-0.597c4.096-0.811,8.175,1.468,9.643,5.376
	c3.516,9.387,5.308,19.328,5.291,29.355C341.333,303.13,303.13,341.333,256,341.333z M189.867,238.933
	c-1.434,5.572-2.15,11.307-2.133,17.067c0,37.7,30.566,68.267,68.267,68.267S324.267,293.7,324.267,256
	c0.017-5.76-0.7-11.494-2.133-17.067H189.867z"/>
<path d="M221.867,273.067c-4.71,0-8.533-3.823-8.533-8.533c0-4.71,3.823-8.533,8.533-8.533c4.71,0,8.533,3.823,8.533,8.533
	C230.4,269.244,226.577,273.067,221.867,273.067z"/>
<path d="M256,273.067c-1.109,0.017-2.21-0.188-3.243-0.597c-1.024-0.495-1.971-1.126-2.816-1.877
	c-1.596-1.613-2.492-3.789-2.475-6.059c0.034-2.261,0.913-4.42,2.475-6.059c0.811-0.777,1.766-1.382,2.816-1.792
	c3.174-1.34,6.844-0.631,9.301,1.792c1.562,1.638,2.441,3.797,2.475,6.059C264.533,269.244,260.71,273.067,256,273.067z"/>
<path d="M290.133,273.067c-4.71,0-8.533-3.823-8.533-8.533c0-4.71,3.823-8.533,8.533-8.533c4.71,0,8.533,3.823,8.533,8.533
	C298.667,269.244,294.844,273.067,290.133,273.067z"/>
<path d="M273.067,307.2h-34.133c-4.71,0-8.533-3.823-8.533-8.533s3.823-8.533,8.533-8.533h34.133c4.71,0,8.533,3.823,8.533,8.533
	S277.777,307.2,273.067,307.2z"/>
<g>
</g>
<g>
</g>
<g>
</g>
<g>
</g>
<g>
</g>
<g>
</g>
<g>
</g>
<g>
</g>
<g>
</g>
<g>
</g>
<g>
</g>
<g>
</g>
<g>
</g>
<g>
</g>
<g>
</g>
</svg>
